# Blender v2.79 (sub 0) OBJ File: ''
# www.blender.org
mtllib ufo.mtl
o Cube.001
v 0.282967 0.006452 0.000000
v -0.282967 0.006452 0.000000
v 0.000000 0.006452 0.282967
v 0.000000 0.158533 -0.997189
v 0.705119 0.158533 -0.705119
v 0.705119 0.297892 -0.705119
v 0.997189 0.158533 0.000000
v 0.000000 0.158533 0.997189
v 0.705119 0.158533 0.705119
v -0.200088 0.006452 0.200088
v -0.997189 0.158533 0.000000
v 0.000000 0.006452 -0.282967
v -0.705119 0.158533 -0.705119
v 0.200088 0.006452 -0.200088
v 0.200088 0.006452 0.200088
v -0.705119 0.158533 0.705119
v -0.200088 0.006452 -0.200088
v 0.705119 0.297892 0.705119
v 0.000000 0.297892 0.997189
v 0.000000 0.442318 0.342613
v -0.705119 0.297892 0.705119
v -0.705119 0.297892 -0.705119
v 0.997189 0.297892 0.000000
v -0.997189 0.297892 0.000000
v 0.000000 0.297892 -0.997189
v 0.242264 0.442318 -0.242264
v 0.342613 0.442318 0.000000
v 0.342613 0.538602 0.000000
v -0.342613 0.442318 0.000000
v 0.000000 0.442318 -0.342613
v 0.242264 0.442318 0.242264
v -0.242264 0.442318 0.242264
v -0.242264 0.442318 -0.242264
v 0.242264 0.538602 0.242264
v 0.186311 0.639954 0.186311
v 0.263484 0.639954 0.000000
v 0.000000 0.538602 0.342613
v -0.342613 0.538602 0.000000
v 0.000000 0.538602 -0.342613
v 0.242264 0.538602 -0.242264
v -0.242264 0.538602 0.242264
v -0.242264 0.538602 -0.242264
v -0.186311 0.639954 -0.186311
v 0.000000 0.639954 -0.263484
v 0.000000 0.710900 -0.108803
v -0.186311 0.639954 0.186311
v 0.000000 0.639954 0.263484
v -0.263484 0.639954 0.000000
v 0.186311 0.639954 -0.186311
v 0.076935 0.710900 -0.076935
v 0.000000 0.710900 0.108803
v 0.076935 0.710900 0.076935
v 0.108803 0.710900 0.000000
v -0.076935 0.710900 0.076935
v -0.076935 0.710900 -0.076935
v -0.108803 0.710900 0.000000
vt 0.312975 0.320941
vt 0.254021 0.220615
vt 0.396348 0.179059
vt 0.923917 0.525343
vt 0.870269 0.378896
vt 0.923917 0.378896
vt 0.501567 0.500000
vt 0.207756 0.500000
vt 0.000000 0.353553
vt 0.000000 0.146447
vt 0.312975 0.179059
vt 0.501567 0.000000
vt 0.455302 0.279385
vt 0.709323 0.146447
vt 0.709323 0.353553
vt 0.396348 0.320941
vt 0.254021 0.279385
vt 0.207756 0.000000
vt 0.455302 0.220615
vt 0.000000 0.646447
vt 0.232807 0.785579
vt 0.000000 0.853553
vt 0.762972 0.171789
vt 0.816620 0.318236
vt 0.762972 0.318236
vt 0.709323 0.171789
vt 0.762972 0.318236
vt 0.709324 0.318236
vt 0.870269 0.525343
vt 0.816620 0.378896
vt 0.870269 0.378896
vt 0.870269 0.171789
vt 0.923917 0.171789
vt 0.816620 0.525343
vt 0.762972 0.525343
vt 0.762972 0.525343
vt 0.709324 0.525343
vt 0.816620 0.171789
vt 0.870269 0.171789
vt 0.923917 0.171789
vt 0.960983 0.242947
vt 0.923917 0.242947
vt 0.207756 1.000000
vt 0.405135 0.835895
vt 0.501567 1.000000
vt 0.709323 0.853553
vt 0.476516 0.714421
vt 0.709323 0.646447
vt 0.501567 0.500000
vt 0.405135 0.664105
vt 0.207756 0.500000
vt 0.232807 0.714421
vt 0.304188 0.835895
vt 0.476516 0.785579
vt 0.304188 0.664105
vt 0.881651 0.000000
vt 0.924889 0.058533
vt 0.869994 0.019838
vt 0.785406 0.646816
vt 0.748340 0.575659
vt 0.785406 0.575659
vt 0.861489 0.525343
vt 0.898555 0.596500
vt 0.861489 0.596500
vt 0.785406 0.525343
vt 0.822472 0.596500
vt 0.785406 0.596500
vt 0.822472 0.646816
vt 0.785406 0.646816
vt 0.960983 0.293263
vt 0.923917 0.293263
vt 0.748340 0.525343
vt 0.785406 0.525343
vt 0.898555 0.646816
vt 0.861490 0.646816
vt 0.792361 0.151951
vt 0.847207 0.113172
vt 0.869994 0.151951
vt 0.780704 0.000000
vt 0.737467 0.058533
vt 0.709323 0.050316
vt 0.709323 0.121473
vt 0.780704 0.171789
vt 0.960983 0.171789
vt 1.000000 0.234730
vt 0.748340 0.646816
vt 0.709323 0.583876
vt 0.898555 0.525343
vt 0.937572 0.588283
vt 0.822472 0.525343
vt 0.861489 0.588283
vt 0.953032 0.121473
vt 0.924889 0.113256
vt 0.869875 0.097193
vt 0.815149 0.058617
vt 0.869875 0.074596
vt 0.847206 0.058617
vt 0.792361 0.019838
vt 0.792481 0.074596
vt 0.792481 0.097193
vt 0.815149 0.113172
vt 0.737467 0.113256
vt 0.870269 0.525343
vt 0.816620 0.171789
vt 0.762972 0.171789
vt 0.816620 0.525343
vt 0.953032 0.050316
vt 1.000000 0.180007
vt 0.709323 0.638599
vt 0.937572 0.533560
vt 0.861489 0.533560
vt 0.881651 0.171789
vn 0.1053 -0.9935 -0.0433
vn -0.0000 -0.9925 0.1221
vn -0.1053 -0.9935 -0.0433
vn -0.2943 -0.1799 -0.9386
vn 0.6339 0.5186 -0.5738
vn 0.7422 -0.4142 -0.5269
vn 0.1096 -0.9935 -0.0307
vn 0.1490 -0.6975 -0.7009
vn 0.7276 -0.6394 0.2487
vn 0.0264 -0.9944 0.1024
vn 0.7206 -0.6796 0.1370
vn -0.2119 -0.6348 0.7431
vn -0.1197 -0.9808 0.1537
vn -0.8017 -0.5909 0.0905
vn -0.1457 -0.9893 -0.0087
vn -0.0264 -0.9944 -0.1025
vn -0.7009 -0.6975 -0.1490
vn 0.2119 -0.6348 -0.7431
vn -0.0359 -0.9796 -0.1976
vn 0.5167 -0.6197 -0.5908
vn 0.1103 -0.9898 -0.0905
vn 0.1035 -0.9933 0.0517
vn 0.6064 -0.6796 -0.4127
vn 0.3386 -0.6394 0.6903
vn 0.0359 -0.9796 0.1976
vn -0.5029 -0.5909 0.6308
vn -0.1127 -0.9885 0.1006
vn -0.1981 -0.9798 0.0276
vn -0.5908 -0.6197 -0.5167
vn -0.0905 -0.9898 -0.1103
vn 0.7091 0.6459 0.2828
vn -0.4733 0.8592 -0.1942
vn -0.3744 0.6647 0.6465
vn 0.9421 -0.1339 -0.3076
vn 0.5612 0.5593 0.6101
vn 0.5021 -0.4227 0.7545
vn 0.2943 -0.1799 0.9386
vn -0.6101 0.5593 0.5612
vn -0.7698 -0.4056 0.4928
vn -0.9379 -0.1655 0.3048
vn -0.5612 0.5593 -0.6100
vn -0.5269 -0.4142 -0.7422
vn 0.4728 -0.1208 -0.8729
vn 0.8282 0.5593 0.0345
vn 0.8885 -0.4227 0.1784
vn 0.8836 -0.1339 0.4486
vn -0.0345 0.5593 0.8282
vn -0.1973 -0.3922 0.8985
vn -0.4477 -0.1655 0.8787
vn -0.8282 0.5593 -0.0345
vn -0.8928 -0.4056 -0.1959
vn -0.8729 -0.1208 -0.4728
vn 0.0239 0.5590 -0.8288
vn 0.1973 -0.3922 -0.8985
vn 0.8901 0.4221 0.1719
vn 0.9153 0.3849 -0.1183
vn 0.7922 -0.6080 -0.0524
vn -0.2828 0.6459 0.7091
vn 0.1942 0.8592 -0.4733
vn -0.6465 0.6647 -0.3744
vn -0.7091 0.6459 -0.2828
vn 0.3261 0.8928 0.3107
vn 0.3766 0.6714 -0.6382
vn 0.6066 0.6328 -0.4812
vn -0.5508 0.8329 -0.0541
vn 0.6227 0.6139 -0.4852
vn 0.7014 0.6459 -0.3014
vn -0.4720 0.8592 0.1973
vn 0.1924 0.6647 0.7219
vn 0.3014 0.6459 0.7014
vn -0.1973 0.8592 -0.4720
vn -0.7219 0.6647 0.1924
vn -0.7014 0.6459 0.3014
vn 0.4720 0.8592 -0.1973
vn -0.1924 0.6647 -0.7219
vn 0.2442 0.6771 -0.6942
vn -0.1942 0.8592 0.4733
vn 0.6465 0.6647 0.3744
vn 0.7455 0.2427 0.6207
vn 0.7856 0.6175 -0.0393
vn 0.5182 0.7483 0.4140
vn 0.8671 0.2031 0.4547
vn 0.1172 0.3949 0.9112
vn 0.0524 -0.6080 0.7922
vn -0.4547 0.2031 0.8671
vn -0.9112 0.3950 0.1173
vn -0.7922 -0.6080 0.0524
vn -0.8671 0.2031 -0.4547
vn -0.1183 0.3849 -0.9153
vn 0.0641 -0.5012 -0.8629
vn -0.2906 -0.0119 -0.9568
vn 0.5672 0.3776 -0.7319
vn -0.2914 -0.1794 -0.9396
vn 0.9347 0.2031 -0.2916
vn 0.7319 0.3776 0.5672
vn 0.5973 -0.6080 0.5231
vn 0.2916 0.2031 0.9347
vn -0.5614 0.3950 0.7272
vn -0.5231 -0.6080 0.5973
vn -0.9347 0.2031 0.2916
vn -0.7272 0.3950 -0.5614
vn -0.5973 -0.6080 -0.5231
vn -0.4752 0.7882 -0.3911
vn -0.0186 0.9716 -0.2358
vn 0.0360 0.7516 -0.6586
vn 0.0980 0.4012 0.9107
vn -0.3470 0.8007 0.4883
vn -0.6854 0.3054 0.6610
vn -0.9108 0.4012 0.0980
vn -0.5030 0.7929 -0.3439
vn -0.6610 0.3054 -0.6854
vn 0.5734 0.4189 -0.7040
vn 0.5852 0.8060 -0.0892
vn 0.9514 0.3080 0.0067
vn 0.7040 0.4189 0.5734
vn 0.0999 0.8007 0.5907
vn -0.0172 0.3054 0.9521
vn -0.5747 0.4012 0.7133
vn -0.5837 0.8050 0.1058
vn -0.9521 0.3054 -0.0172
vn -0.7133 0.4012 -0.5747
vn -0.0892 0.8060 -0.5852
vn 0.0067 0.3080 -0.9514
vn 0.6207 0.2427 -0.7455
vn -0.0393 0.6175 -0.7856
vn 0.4140 0.7483 -0.5182
vn 0.2294 0.9703 -0.0767
vn -0.1571 0.9703 -0.1839
vn -0.0130 0.9732 0.2295
vn 0.3919 0.7415 -0.5445
vn -0.0689 0.9250 -0.3737
vn 0.2096 0.9612 -0.1794
vn 0.5445 0.7415 0.3919
vn 0.4255 0.9020 -0.0728
vn 0.1817 0.9574 0.2246
vn 0.0733 0.7814 0.6198
vn -0.0968 0.9766 0.1921
vn -0.4813 0.7597 0.4372
vn -0.5479 0.7284 -0.4114
vn -0.4255 0.9020 0.0728
vn -0.1817 0.9574 -0.2246
vn 0.3888 0.8009 -0.4554
vn 0.2069 0.9762 -0.0643
vn 0.6586 0.7516 0.0360
vn 0.4554 0.8009 0.3888
vn 0.0258 0.9690 0.2455
vn -0.0312 0.7597 0.6495
vn -0.3864 0.7814 0.4900
vn -0.2069 0.9762 0.0643
vn -0.6462 0.7621 -0.0406
vn -0.0630 -0.9935 0.0948
vn -0.0850 -0.9927 -0.0850
vn 0.1016 -0.9925 -0.0678
vn -0.1015 -0.9925 -0.0679
vn 0.0850 -0.9927 -0.0850
vn 0.0630 -0.9935 0.0948
vn 0.0635 -0.9935 -0.0945
vn 0.0755 -0.9938 0.0812
vn -0.1016 -0.9925 0.0678
vn 0.1015 -0.9925 0.0679
vn -0.0756 -0.9938 0.0812
vn -0.0635 -0.9935 -0.0945
vn -0.1051 -0.9935 0.0438
vn 0.0000 -0.9925 -0.1221
vn 0.1051 -0.9935 0.0438
vn -0.0254 -0.5612 -0.8273
vn -0.1946 0.3912 -0.8995
vn 0.8715 0.1202 -0.4754
vn 0.1981 -0.9798 0.0276
vn 0.0905 -0.9898 -0.1103
vn 0.4933 -0.6334 -0.5962
vn -0.0359 -0.9796 0.1975
vn 0.1127 -0.9885 0.1006
vn 0.6174 -0.6129 0.4932
vn -0.1035 -0.9933 0.0517
vn -0.1918 -0.6651 0.7217
vn -0.7058 -0.6451 -0.2927
vn 0.0359 -0.9796 -0.1975
vn -0.1103 -0.9898 -0.0905
vn -0.5962 -0.6334 -0.4933
vn 0.0264 -0.9944 -0.1025
vn -0.3809 -0.6729 -0.6342
vn 0.6911 -0.6751 -0.2581
vn 0.1197 -0.9808 0.1537
vn 0.1457 -0.9893 -0.0087
vn 0.7853 -0.6129 -0.0878
vn -0.0264 -0.9944 0.1025
vn 0.3809 -0.6729 0.6342
vn -0.7061 -0.6451 0.2921
vn -0.1096 -0.9935 -0.0307
vn -0.6460 -0.6651 0.3747
vn -0.2581 -0.6751 -0.6911
vn 0.5151 0.5886 0.6232
vn -0.0288 0.8803 -0.4736
vn -0.5410 0.7306 0.4166
vn 0.8383 -0.5422 -0.0571
vn 0.8951 0.4005 -0.1959
vn 0.4511 0.1706 0.8760
vn 0.0254 -0.5612 0.8273
vn 0.1959 0.4005 0.8951
vn -0.8760 0.1706 0.4511
vn -0.8283 -0.5588 0.0402
vn -0.8951 0.4005 0.1959
vn -0.4511 0.1706 -0.8760
vn 0.5716 -0.5205 -0.6343
vn 0.5294 0.4128 -0.7412
vn 0.9384 0.1706 0.3005
vn 0.6332 -0.5422 0.5524
vn 0.7715 0.4005 0.4944
vn -0.3005 0.1706 0.9384
vn -0.5573 -0.5588 0.6141
vn -0.4944 0.4005 0.7715
vn -0.9384 0.1706 -0.3005
vn -0.6343 -0.5205 -0.5716
vn -0.7715 0.4005 -0.4944
vn 0.2916 0.1788 -0.9397
vn 0.6254 0.6250 -0.4673
vn 0.6996 0.3071 -0.6452
vn 0.9921 0.1056 0.0671
vn -0.6231 0.5886 0.5151
vn 0.4736 0.8803 -0.0288
vn -0.4166 0.7307 -0.5410
vn -0.5151 0.5886 -0.6231
vn 0.0288 0.8803 0.4736
vn 0.5612 0.7948 -0.2309
vn 0.7006 0.7008 -0.1344
vn -0.2090 0.6324 -0.7460
vn -0.1765 0.8990 0.4008
vn 0.8048 0.5886 0.0764
vn -0.3553 0.8803 -0.3146
vn -0.0880 0.7307 0.6771
vn -0.0764 0.5886 0.8048
vn 0.3146 0.8803 -0.3553
vn -0.6771 0.7307 -0.0880
vn -0.8048 0.5886 -0.0764
vn 0.3553 0.8803 0.3146
vn 0.0880 0.7307 -0.6771
vn 0.5793 0.6181 -0.5314
vn 0.2561 0.7742 0.5788
vn 0.4166 0.7306 0.5410
vn 0.5506 0.4480 0.7044
vn 0.9598 0.2796 0.0266
vn 0.5852 0.8060 0.0892
vn 0.8090 -0.3410 0.4788
vn 0.6452 0.3071 0.6996
vn -0.0746 0.1141 0.9907
vn -0.4788 -0.3410 0.8090
vn -0.6870 0.3073 0.6585
vn -0.9907 0.1142 -0.0746
vn -0.8090 -0.3410 -0.4788
vn -0.6585 0.3073 -0.6870
vn 0.0671 0.1056 -0.9921
vn -0.1013 -0.4672 -0.8784
vn 0.0308 0.3058 -0.9516
vn 0.7473 0.0972 -0.6573
vn 0.9106 -0.3410 -0.2334
vn 0.9516 0.3058 0.0308
vn 0.6573 0.0972 0.7473
vn 0.2334 -0.3410 0.9106
vn -0.0202 0.3073 0.9514
vn -0.7532 0.1142 0.6478
vn -0.9106 -0.3410 0.2334
vn -0.9514 0.3073 -0.0202
vn -0.6478 0.1142 -0.7532
vn -0.4035 0.7254 -0.5576
vn -0.2246 0.9574 -0.1817
vn 0.0728 0.9004 -0.4289
vn -0.1237 0.2071 0.9705
vn -0.0400 0.7636 0.6445
vn -0.5730 0.6206 0.5354
vn -0.9705 0.2071 -0.1237
vn -0.6491 0.7600 -0.0329
vn -0.5464 0.6227 -0.5602
vn 0.7675 0.2255 -0.6001
vn 0.5182 0.7483 -0.4140
vn 0.7856 0.6175 0.0393
vn 0.6001 0.2255 0.7675
vn 0.4140 0.7483 0.5182
vn -0.0266 0.6206 0.7837
vn -0.7737 0.2071 0.5987
vn -0.4840 0.7636 0.4275
vn -0.7765 0.6295 -0.0287
vn -0.5987 0.2071 -0.7737
vn -0.4246 0.7556 -0.4987
vn 0.0393 0.6175 -0.7856
vn 0.7044 0.4480 -0.5506
vn 0.0266 0.2796 -0.9598
vn 0.0892 0.8060 -0.5852
vn 0.1810 0.9703 -0.1604
vn -0.1709 0.9704 -0.1709
vn -0.1571 0.9704 0.1836
vn -0.2320 0.9704 -0.0676
vn -0.0310 0.9701 0.2407
vn 0.1059 0.9703 -0.2175
vn -0.2330 0.9701 0.0677
vn 0.1498 0.9732 0.1743
vn 0.0146 0.9703 -0.2414
vn -0.1715 0.9732 0.1531
vn 0.1709 0.9704 0.1709
vn 0.1571 0.9704 -0.1836
vn 0.2320 0.9704 0.0676
vn 0.0198 0.9703 -0.2411
vn -0.0999 0.9732 0.2070
vn 0.4554 0.8009 -0.3889
vn -0.0360 0.7516 -0.6586
vn 0.0675 0.9764 -0.2051
vn 0.3889 0.8009 0.4554
vn 0.6586 0.7516 -0.0360
vn 0.2337 0.9721 0.0216
vn -0.1025 0.7151 0.6915
vn 0.0060 0.9612 0.2758
vn -0.3132 0.9251 0.2147
vn -0.3803 0.7930 -0.4760
vn -0.6584 0.7524 0.0191
vn -0.2337 0.9721 -0.0216
vn 0.5445 0.7416 -0.3919
vn 0.1844 0.9532 -0.2395
vn 0.3772 0.9235 0.0693
vn 0.3919 0.7416 0.5445
vn 0.2246 0.9574 0.1817
vn -0.0604 0.9011 0.4293
vn -0.5615 0.7151 0.4165
vn -0.1857 0.9508 0.2480
vn -0.3772 0.9235 -0.0693
usemtl Material.001
s off
f 1/1/1 3/2/2 2/3/3
f 4/4/4 6/5/5 5/6/6
f 1/1/7 5/7/8 7/8/9
f 3/2/10 9/9/11 8/10/12
f 10/11/13 11/12/14 2/3/15
f 12/13/16 13/14/17 4/15/18
f 12/13/19 5/7/20 14/16/21
f 15/17/22 7/8/23 9/9/24
f 3/2/25 16/18/26 10/11/27
f 2/3/28 13/14/29 17/19/30
f 18/20/31 20/21/32 19/22/33
f 7/23/34 18/24/35 9/25/36
f 8/26/37 21/27/38 16/28/39
f 11/29/40 22/30/41 13/31/42
f 5/6/43 23/32/44 7/33/45
f 9/25/46 19/34/47 8/35/48
f 16/28/49 24/36/50 11/37/51
f 13/31/52 25/38/53 4/39/54
f 26/40/55 28/41/56 27/42/57
f 21/43/58 29/44/59 24/45/60
f 22/46/61 30/47/62 25/48/63
f 6/49/64 30/47/65 26/50/66
f 23/51/67 31/52/68 18/20/69
f 19/22/70 32/53/71 21/43/72
f 24/45/73 33/54/74 22/46/75
f 6/49/76 27/55/77 23/51/78
f 34/56/79 36/57/80 35/58/81
f 31/59/82 37/60/83 20/61/84
f 32/62/85 38/63/86 29/64/87
f 33/65/88 39/66/89 30/67/90
f 30/67/91 40/68/92 26/69/93
f 27/42/94 34/70/95 31/71/96
f 20/61/97 41/72/98 32/73/99
f 29/64/100 42/74/101 33/75/102
f 43/76/103 45/77/104 44/78/105
f 37/79/106 46/80/107 41/81/108
f 38/82/109 43/76/110 42/83/111
f 40/84/112 36/85/113 28/41/114
f 34/86/115 47/87/116 37/60/117
f 41/88/118 48/89/119 38/63/120
f 42/90/121 44/91/122 39/66/123
f 40/92/124 44/78/125 49/93/126
f 50/94/127 45/77/128 51/95/129
f 49/93/130 45/77/131 50/94/132
f 35/58/133 53/96/134 52/97/135
f 47/98/136 54/99/137 46/80/138
f 43/76/139 56/100/140 55/101/141
f 49/93/142 53/96/143 36/57/144
f 35/58/145 51/95/146 47/98/147
f 46/80/148 56/100/149 48/102/150
f 2/3/151 17/19/152 12/13/153
f 12/13/154 14/16/155 1/1/156
f 1/1/157 15/17/158 3/2/159
f 3/2/160 10/11/161 2/3/162
f 2/3/163 12/13/164 1/1/165
f 4/4/166 25/103/167 6/5/168
f 1/1/169 14/16/170 5/7/171
f 3/2/172 15/17/173 9/9/174
f 10/11/175 16/18/176 11/12/177
f 12/13/178 17/19/179 13/14/180
f 12/13/181 4/15/182 5/7/183
f 15/17/184 1/1/185 7/8/186
f 3/2/187 8/10/188 16/18/189
f 2/3/190 11/12/191 13/14/192
f 18/20/193 31/52/194 20/21/195
f 7/23/196 23/104/197 18/24/198
f 8/26/199 19/105/200 21/27/201
f 11/29/202 24/106/203 22/30/204
f 5/6/205 6/5/206 23/32/207
f 9/25/208 18/24/209 19/34/210
f 16/28/211 21/27/212 24/36/213
f 13/31/214 22/30/215 25/38/216
f 26/40/217 40/84/218 28/41/219
f 21/43/220 32/53/221 29/44/222
f 22/46/223 33/54/224 30/47/225
f 6/49/226 25/48/227 30/47/228
f 23/51/229 27/55/230 31/52/231
f 19/22/232 20/21/233 32/53/234
f 24/45/235 29/44/236 33/54/237
f 6/49/238 26/50/239 27/55/240
f 34/56/241 28/107/242 36/57/243
f 31/59/244 34/86/245 37/60/246
f 32/62/247 41/88/248 38/63/249
f 33/65/250 42/90/251 39/66/252
f 30/67/253 39/66/254 40/68/255
f 27/42/256 28/41/257 34/70/258
f 20/61/259 37/60/260 41/72/261
f 29/64/262 38/63/263 42/74/264
f 43/76/265 55/101/266 45/77/267
f 37/79/268 47/98/269 46/80/270
f 38/82/271 48/102/272 43/76/273
f 40/84/274 49/108/275 36/85/276
f 34/86/277 35/109/278 47/87/279
f 41/88/280 46/110/281 48/89/282
f 42/90/283 43/111/284 44/91/285
f 40/92/286 39/112/287 44/78/288
f 45/77/289 55/101/290 56/100/291
f 56/100/292 54/99/293 45/77/294
f 54/99/295 51/95/296 45/77/297
f 51/95/298 52/97/299 53/96/300
f 53/96/301 50/94/302 51/95/303
f 49/93/304 44/78/305 45/77/306
f 35/58/307 36/57/308 53/96/309
f 47/98/310 51/95/311 54/99/312
f 43/76/313 48/102/314 56/100/315
f 49/93/316 50/94/317 53/96/318
f 35/58/319 52/97/320 51/95/321
f 46/80/322 54/99/323 56/100/324
