# Blender v2.79 (sub 0) OBJ File: ''
# www.blender.org
mtllib wall.mtl
o Cube.001
v -1.000000 -1.009943 -1.000000
v 1.000000 -1.009944 1.000000
v -1.000000 -1.009944 1.000000
v 1.000000 -0.795248 1.000000
v -0.697085 -0.598220 0.697085
v -1.000000 -0.795248 1.000000
v 1.000000 -0.795247 -1.000000
v 1.000000 -1.009943 -1.000000
v -1.000000 -0.795247 -1.000000
v 0.697085 -0.598219 -0.697085
v 0.697085 0.601461 0.697085
v 0.697085 -0.598220 0.697085
v -0.697085 -0.598219 -0.697085
v -0.697085 0.601462 -0.697085
v 1.000013 0.801524 -1.000013
v 0.697085 0.601462 -0.697085
v -0.697085 0.601461 0.697085
v 1.000013 1.001239 1.000013
v 1.000013 0.801522 1.000013
v -1.000013 0.801522 1.000013
v -1.000013 0.801524 -1.000013
v -1.000013 1.001240 -1.000013
v -1.000013 1.001239 1.000013
v 1.000013 1.001240 -1.000013
vt 0.344875 0.675755
vt 0.000000 0.337878
vt 0.344875 0.337878
vt 0.000000 0.000000
vt 0.052234 0.286704
vt 0.000000 0.337878
vt 0.929003 0.675755
vt 0.891982 0.337878
vt 0.929003 0.337878
vt 0.929003 0.000000
vt 0.966025 0.337878
vt 0.929003 0.337878
vt 0.891982 0.000000
vt 0.966025 0.675755
vt 0.929003 0.337878
vt 0.966025 0.337878
vt 0.891982 0.235529
vt 0.685111 0.000000
vt 0.891981 0.000000
vt 0.344875 0.000000
vt 0.052234 0.051174
vt 0.292641 0.286703
vt 0.344875 0.337878
vt 0.292641 0.051174
vt 0.394790 0.617765
vt 0.344875 0.333333
vt 0.394790 0.382235
vt 0.551745 0.902196
vt 0.344875 0.666667
vt 0.551745 0.666667
vt 0.891981 0.706588
vt 0.685111 0.471059
vt 0.891981 0.471059
vt 0.685111 0.235529
vt 0.891981 0.471059
vt 0.685112 0.471059
vt 1.000000 0.333333
vt 0.966025 0.000000
vt 1.000000 0.000000
vt 0.635197 0.382235
vt 0.685111 0.666667
vt 0.635197 0.617765
vt 0.685111 0.333333
vt 0.344875 0.666667
vt 0.344875 0.000000
vt 0.685111 0.333333
vt 0.344875 0.333333
vt 0.619695 1.000000
vt 0.585720 0.666667
vt 0.619695 0.666667
vt 0.551745 0.666667
vt 0.585720 1.000000
vt 0.551745 1.000000
vt 0.966025 0.337878
vt 1.000000 0.671211
vt 0.966025 0.671211
vt 0.000000 0.675755
vt 0.891982 0.675755
vt 0.966025 0.000000
vt 0.929003 0.675755
vt 0.685112 0.235529
vt 0.344875 0.902196
vt 0.685112 0.706588
vt 0.891981 0.235529
vt 0.966025 0.333333
vt 0.685111 0.000000
vt 0.585720 1.000000
vt 1.000000 0.337878
vn 0.0248 -0.9818 0.1881
vn -0.1897 -0.9818 -0.0000
vn 0.2316 -0.9708 -0.0621
vn -0.1410 0.8332 0.5347
vn 0.1178 0.8032 0.5840
vn 0.1404 0.8379 0.5275
vn 0.1897 0.0034 -0.9818
vn -0.0842 -0.1133 -0.9900
vn -0.1695 0.1696 -0.9708
vn -0.1886 0.0202 0.9818
vn 0.0245 -0.1390 0.9900
vn 0.0621 0.2316 0.9708
vn 0.9708 0.0128 0.2394
vn 0.9900 -0.0556 -0.1297
vn 0.9818 0.0000 -0.1897
vn -0.9708 0.0043 -0.2397
vn -0.9900 -0.1133 0.0842
vn -0.9818 0.1832 0.0491
vn 0.9917 0.0605 0.1135
vn 0.9925 -0.1146 -0.0414
vn 0.9917 0.0985 -0.0827
vn 0.5258 0.8390 0.1402
vn 0.6380 0.7680 -0.0554
vn 0.4640 0.8792 -0.1084
vn -0.5181 0.8440 -0.1387
vn -0.5840 0.8032 0.1178
vn -0.4958 0.8585 0.1310
vn 0.1402 0.8390 -0.5258
vn 0.0073 0.7613 -0.6483
vn -0.1310 0.8585 -0.4958
vn 0.1215 -0.8225 -0.5556
vn -0.1302 -0.8454 -0.5181
vn -0.1032 -0.7925 -0.6011
vn -0.9917 0.0090 -0.1283
vn -0.9925 -0.1062 0.0599
vn -0.9917 0.1271 0.0198
vn 0.1283 0.0090 -0.9917
vn -0.0258 -0.1191 -0.9925
vn -0.1135 0.0604 -0.9917
vn -0.1222 0.0400 0.9917
vn 0.0414 -0.1146 0.9925
vn 0.0198 0.1271 0.9917
vn 0.9909 0.0008 0.1345
vn 0.9818 -0.1674 -0.0894
vn 0.9909 0.1246 -0.0507
vn -0.1210 -0.8198 0.5597
vn 0.1302 -0.8454 0.5181
vn 0.0744 -0.7750 0.6276
vn 0.5630 -0.8176 0.1203
vn 0.5050 -0.8540 -0.1251
vn 0.6276 -0.7750 -0.0744
vn -0.5597 -0.8198 -0.1210
vn -0.5181 -0.8454 0.1302
vn -0.6463 -0.7626 0.0264
vn -0.1643 0.9818 -0.0949
vn 0.0000 0.9818 0.1897
vn 0.0621 0.9708 -0.2317
vn -0.9909 0.0008 -0.1345
vn -0.9818 -0.1897 0.0000
vn -0.9909 0.1338 0.0132
vn 0.1345 0.0008 -0.9909
vn -0.0582 -0.2327 -0.9708
vn -0.0132 0.1338 -0.9909
vn -0.1344 0.0033 0.9909
vn 0.2258 -0.0811 0.9708
vn 0.0132 0.1338 0.9909
vn 0.1505 -0.9818 0.1155
vn -0.1696 -0.9708 0.1695
vn -0.1341 -0.9819 -0.1341
vn -0.1328 0.8559 0.4998
vn -0.0394 0.7646 0.6433
vn 0.1286 0.8299 0.5429
vn 0.1781 0.0652 -0.9818
vn 0.1092 -0.0894 -0.9900
vn -0.1409 -0.0085 -0.9900
vn 0.0000 0.1897 0.9818
vn -0.0444 -0.1340 0.9900
vn 0.1403 -0.0151 0.9900
vn 0.9708 0.1784 0.1602
vn 0.9900 -0.0894 0.1092
vn 0.9900 -0.0031 -0.1411
vn -0.9708 0.0824 -0.2252
vn -0.9900 -0.0263 -0.1387
vn -0.9900 -0.0085 0.1409
vn 0.9917 0.1240 0.0340
vn 0.9925 -0.0463 0.1128
vn 0.9925 -0.0501 -0.1111
vn 0.4746 0.8723 0.1178
vn 0.6107 0.7858 0.0979
vn 0.5508 0.8248 -0.1280
vn -0.4554 0.8848 -0.0989
vn -0.6366 0.7689 0.0587
vn -0.5429 0.8299 0.1286
vn 0.1178 0.8723 -0.4746
vn -0.0587 0.7689 -0.6366
vn -0.1273 0.8212 -0.5562
vn 0.0618 -0.7703 -0.6347
vn 0.0917 -0.8811 -0.4640
vn -0.1345 -0.8279 -0.5446
vn -0.9917 0.0918 -0.0900
vn -0.9925 -0.0722 -0.0982
vn -0.9925 -0.0344 0.1169
vn 0.0900 0.0918 -0.9917
vn 0.0721 -0.0982 -0.9925
vn -0.1049 -0.0621 -0.9925
vn -0.0591 0.1142 0.9917
vn -0.0982 -0.0722 0.9925
vn 0.1111 -0.0501 0.9925
vn 0.9909 0.0256 0.1320
vn 0.9708 -0.0621 0.2317
vn 0.9818 -0.0126 -0.1893
vn -0.0162 -0.7616 0.6478
vn -0.1063 -0.8723 0.4772
vn 0.1345 -0.8279 0.5446
vn 0.6469 -0.7622 -0.0226
vn 0.4640 -0.8811 0.0917
vn 0.5402 -0.8307 -0.1343
vn -0.6478 -0.7616 -0.0162
vn -0.4640 -0.8811 -0.0917
vn -0.5446 -0.8279 0.1345
vn -0.0491 0.9818 -0.1833
vn -0.2317 0.9708 0.0621
vn 0.1342 0.9818 0.1342
vn -0.9909 0.0256 -0.1320
vn -0.9708 -0.2317 -0.0621
vn -0.9818 -0.0189 0.1888
vn 0.1320 0.0256 -0.9909
vn 0.1897 0.0000 -0.9818
vn -0.2391 -0.0199 -0.9708
vn -0.1204 0.0599 0.9909
vn -0.1643 -0.0949 0.9818
vn 0.2399 -0.0040 0.9708
usemtl Material.001
s 1
f 1/1/1 2/2/2 3/3/3
f 4/4/4 5/5/5 6/6/6
f 1/7/7 7/8/8 8/9/9
f 2/10/10 6/11/11 3/12/12
f 8/9/13 4/13/14 2/10/15
f 3/14/16 9/15/17 1/16/18
f 10/17/19 11/18/20 12/19/21
f 7/20/22 12/21/23 4/4/24
f 6/6/25 13/22/26 9/23/27
f 9/23/28 10/24/29 7/20/30
f 14/25/31 15/26/32 16/27/33
f 5/28/34 14/29/35 13/30/36
f 13/31/37 16/32/38 10/33/39
f 12/34/40 17/35/41 5/36/42
f 15/37/43 18/38/44 19/39/45
f 11/40/46 20/41/47 17/42/48
f 16/27/49 19/43/50 11/40/51
f 17/42/52 21/44/53 14/25/54
f 18/45/55 22/46/56 23/47/57
f 20/48/58 22/49/59 21/50/60
f 21/51/61 24/52/62 15/53/63
f 19/54/64 23/55/65 20/56/66
f 1/1/67 8/57/68 2/2/69
f 4/4/70 12/21/71 5/5/72
f 1/7/73 9/58/74 7/8/75
f 2/10/76 4/59/77 6/11/78
f 8/9/79 7/8/80 4/13/81
f 3/14/82 6/60/83 9/15/84
f 10/17/85 16/61/86 11/18/87
f 7/20/88 10/24/89 12/21/90
f 6/6/91 5/5/92 13/22/93
f 9/23/94 13/22/95 10/24/96
f 14/25/97 21/44/98 15/26/99
f 5/28/100 17/62/101 14/29/102
f 13/31/103 14/63/104 16/32/105
f 12/34/106 11/64/107 17/35/108
f 15/37/109 24/65/110 18/38/111
f 11/40/112 19/43/113 20/41/114
f 16/27/115 15/26/116 19/43/117
f 17/42/118 20/41/119 21/44/120
f 18/45/121 24/66/122 22/46/123
f 20/48/124 23/67/125 22/49/126
f 21/51/127 22/49/128 24/52/129
f 19/54/130 18/68/131 23/55/132
